# xmcd CD database file
#
# Track frame offsets:
#	150
#	17397
#	38463
#	52323
#	61147
#
# Disc length: 951 seconds
#
# Revision: 0
# Processed by: cddbd v1.5.2PL0 Copyright (c) Steve Scherf et al.
# Submitted via: CDex 1.51
#
DISCID=3403b505
DTITLE=The McClymonts - The McClymonts
DYEAR=2006
DGENRE=Country
TTITLE0=Something That My Heart Does
TTITLE1=Beyond Tomorrow
TTITLE2=Baby's Gone Hme
TTITLE3=Love You Like That
TTITLE4=Jack
EXTD=YEAR: 2006
EXTT0=
EXTT1=
EXTT2=
EXTT3=
EXTT4=
PLAYORDER=
